<mxfile host="app.diagrams.net" modified="2023-08-18T13:09:24.260Z" agent="Mozilla/5.0 (Windows NT 10.0; Win64; x64) AppleWebKit/537.36 (KHTML, like Gecko) Chrome/115.0.0.0 Safari/537.36 Edg/115.0.1901.203" etag="R8zlms7CphWxteqICgLp" version="21.6.8" type="github">
  <diagram name="第 1 页" id="aJr1CnVLMYaMSsSwnSS-">
    <mxGraphModel dx="996" dy="549" grid="1" gridSize="10" guides="1" tooltips="1" connect="1" arrows="1" fold="1" page="1" pageScale="1" pageWidth="827" pageHeight="1169" math="0" shadow="0">
      <root>
        <mxCell id="0" />
        <mxCell id="1" parent="0" />
        <mxCell id="PJUKhafEurz4zwJdsIPz-2" style="edgeStyle=orthogonalEdgeStyle;rounded=0;orthogonalLoop=1;jettySize=auto;html=1;exitX=0.5;exitY=1;exitDx=0;exitDy=0;" edge="1" parent="1" source="JNVkFdvc24gSdQckHeRq-1" target="JNVkFdvc24gSdQckHeRq-2">
          <mxGeometry relative="1" as="geometry" />
        </mxCell>
        <mxCell id="JNVkFdvc24gSdQckHeRq-1" value="输入数据" style="rounded=1;whiteSpace=wrap;html=1;" parent="1" vertex="1">
          <mxGeometry x="354" y="60" width="120" height="60" as="geometry" />
        </mxCell>
        <mxCell id="PJUKhafEurz4zwJdsIPz-3" style="edgeStyle=orthogonalEdgeStyle;rounded=0;orthogonalLoop=1;jettySize=auto;html=1;exitX=0.5;exitY=1;exitDx=0;exitDy=0;entryX=0.5;entryY=0;entryDx=0;entryDy=0;" edge="1" parent="1" source="JNVkFdvc24gSdQckHeRq-2" target="JNVkFdvc24gSdQckHeRq-3">
          <mxGeometry relative="1" as="geometry" />
        </mxCell>
        <mxCell id="JNVkFdvc24gSdQckHeRq-2" value="NCEP数据" style="rounded=1;whiteSpace=wrap;html=1;" parent="1" vertex="1">
          <mxGeometry x="354" y="170" width="120" height="60" as="geometry" />
        </mxCell>
        <mxCell id="PJUKhafEurz4zwJdsIPz-4" style="edgeStyle=orthogonalEdgeStyle;rounded=0;orthogonalLoop=1;jettySize=auto;html=1;exitX=0.5;exitY=1;exitDx=0;exitDy=0;" edge="1" parent="1" source="JNVkFdvc24gSdQckHeRq-3" target="JNVkFdvc24gSdQckHeRq-4">
          <mxGeometry relative="1" as="geometry" />
        </mxCell>
        <mxCell id="JNVkFdvc24gSdQckHeRq-3" value="筛选" style="rounded=1;whiteSpace=wrap;html=1;" parent="1" vertex="1">
          <mxGeometry x="354" y="280" width="120" height="60" as="geometry" />
        </mxCell>
        <mxCell id="PJUKhafEurz4zwJdsIPz-5" style="edgeStyle=orthogonalEdgeStyle;rounded=0;orthogonalLoop=1;jettySize=auto;html=1;exitX=0.5;exitY=1;exitDx=0;exitDy=0;entryX=0.5;entryY=0;entryDx=0;entryDy=0;" edge="1" parent="1" source="JNVkFdvc24gSdQckHeRq-4" target="JNVkFdvc24gSdQckHeRq-5">
          <mxGeometry relative="1" as="geometry" />
        </mxCell>
        <mxCell id="JNVkFdvc24gSdQckHeRq-4" value="倒序" style="rounded=1;whiteSpace=wrap;html=1;" parent="1" vertex="1">
          <mxGeometry x="354" y="390" width="120" height="60" as="geometry" />
        </mxCell>
        <mxCell id="PJUKhafEurz4zwJdsIPz-6" style="edgeStyle=orthogonalEdgeStyle;rounded=0;orthogonalLoop=1;jettySize=auto;html=1;exitX=0.5;exitY=1;exitDx=0;exitDy=0;" edge="1" parent="1" source="JNVkFdvc24gSdQckHeRq-5" target="JNVkFdvc24gSdQckHeRq-6">
          <mxGeometry relative="1" as="geometry" />
        </mxCell>
        <mxCell id="JNVkFdvc24gSdQckHeRq-5" value="插值" style="rounded=1;whiteSpace=wrap;html=1;" parent="1" vertex="1">
          <mxGeometry x="354" y="500" width="120" height="60" as="geometry" />
        </mxCell>
        <mxCell id="PJUKhafEurz4zwJdsIPz-8" style="edgeStyle=orthogonalEdgeStyle;rounded=0;orthogonalLoop=1;jettySize=auto;html=1;exitX=0.5;exitY=1;exitDx=0;exitDy=0;" edge="1" parent="1" source="JNVkFdvc24gSdQckHeRq-6" target="PJUKhafEurz4zwJdsIPz-7">
          <mxGeometry relative="1" as="geometry" />
        </mxCell>
        <mxCell id="JNVkFdvc24gSdQckHeRq-6" value="训练" style="rounded=1;whiteSpace=wrap;html=1;" parent="1" vertex="1">
          <mxGeometry x="354" y="600" width="120" height="60" as="geometry" />
        </mxCell>
        <mxCell id="PJUKhafEurz4zwJdsIPz-7" value="输出结果" style="rounded=1;whiteSpace=wrap;html=1;" vertex="1" parent="1">
          <mxGeometry x="354" y="700" width="120" height="60" as="geometry" />
        </mxCell>
      </root>
    </mxGraphModel>
  </diagram>
</mxfile>
